<svg xmlns="http://www.w3.org/2000/svg" xmlns:xlink="http://www.w3.org/1999/xlink" width="500" zoomAndPan="magnify" viewBox="0 0 375 374.999991" height="500" preserveAspectRatio="xMidYMid meet" version="1.0"><defs><g/><clipPath id="1d1141f55a"><path d="M 172 190 L 201 190 L 201 210.21875 L 172 210.21875 Z M 172 190 " clip-rule="nonzero"/></clipPath><clipPath id="974270c9bc"><path d="M 185 60.21875 L 188 60.21875 L 188 82 L 185 82 Z M 185 60.21875 " clip-rule="nonzero"/></clipPath><clipPath id="5c49385401"><path d="M 118.773438 124 L 140 124 L 140 127 L 118.773438 127 Z M 118.773438 124 " clip-rule="nonzero"/></clipPath><clipPath id="3b0a0d7f09"><path d="M 183 134 L 206 134 L 206 152.308594 L 183 152.308594 Z M 183 134 " clip-rule="nonzero"/></clipPath><clipPath id="7238e75311"><path d="M 183 120 L 208.804688 120 L 208.804688 132 L 183 132 Z M 183 120 " clip-rule="nonzero"/></clipPath><clipPath id="6402668d3e"><path d="M 169 134 L 180 134 L 180 152.308594 L 169 152.308594 Z M 169 134 " clip-rule="nonzero"/></clipPath><clipPath id="1f51c32956"><path d="M 166.054688 120 L 180 120 L 180 132 L 166.054688 132 Z M 166.054688 120 " clip-rule="nonzero"/></clipPath><clipPath id="85f48122fe"><path d="M 169 104.308594 L 205 104.308594 L 205 118 L 169 118 Z M 169 104.308594 " clip-rule="nonzero"/></clipPath></defs><path fill="#d8d8d8" d="M 199.292969 200.160156 C 199.292969 200.738281 199.210938 201.308594 199.046875 201.875 C 198.882812 202.441406 198.640625 202.992188 198.316406 203.523438 C 197.996094 204.058594 197.597656 204.566406 197.132812 205.042969 C 196.664062 205.523438 196.132812 205.96875 195.535156 206.378906 C 194.941406 206.785156 194.292969 207.148438 193.59375 207.472656 C 192.890625 207.792969 192.152344 208.0625 191.375 208.285156 C 190.597656 208.503906 189.792969 208.671875 188.96875 208.785156 C 188.140625 208.894531 187.308594 208.953125 186.464844 208.953125 C 185.625 208.953125 184.789062 208.894531 183.964844 208.785156 C 183.136719 208.671875 182.335938 208.503906 181.558594 208.285156 C 180.777344 208.0625 180.039062 207.792969 179.339844 207.472656 C 178.640625 207.148438 177.992188 206.785156 177.394531 206.378906 C 176.800781 205.96875 176.269531 205.523438 175.800781 205.042969 C 175.332031 204.566406 174.9375 204.058594 174.613281 203.523438 C 174.292969 202.992188 174.050781 202.441406 173.886719 201.875 C 173.722656 201.308594 173.640625 200.738281 173.640625 200.160156 C 173.640625 199.582031 173.722656 199.011719 173.886719 198.445312 C 174.050781 197.878906 174.292969 197.328125 174.613281 196.792969 C 174.9375 196.261719 175.332031 195.753906 175.800781 195.273438 C 176.269531 194.792969 176.800781 194.351562 177.394531 193.941406 C 177.992188 193.535156 178.640625 193.167969 179.339844 192.847656 C 180.039062 192.527344 180.777344 192.257812 181.558594 192.035156 C 182.335938 191.816406 183.136719 191.648438 183.964844 191.535156 C 184.789062 191.421875 185.625 191.367188 186.464844 191.367188 C 187.308594 191.367188 188.140625 191.421875 188.96875 191.535156 C 189.792969 191.648438 190.597656 191.816406 191.375 192.035156 C 192.152344 192.257812 192.890625 192.527344 193.59375 192.847656 C 194.292969 193.167969 194.941406 193.535156 195.535156 193.941406 C 196.132812 194.351562 196.664062 194.792969 197.132812 195.273438 C 197.597656 195.753906 197.996094 196.261719 198.316406 196.792969 C 198.640625 197.328125 198.882812 197.878906 199.046875 198.445312 C 199.210938 199.011719 199.292969 199.582031 199.292969 200.160156 Z M 199.292969 200.160156 " fill-opacity="1" fill-rule="nonzero"/><g clip-path="url(#1d1141f55a)"><path fill="#333333" d="M 186.464844 210.21875 C 178.695312 210.21875 172.371094 205.707031 172.371094 200.160156 C 172.371094 194.613281 178.691406 190.101562 186.464844 190.101562 C 194.238281 190.101562 200.558594 194.613281 200.558594 200.160156 C 200.558594 205.707031 194.238281 210.21875 186.464844 210.21875 Z M 186.464844 192.636719 C 180.089844 192.636719 174.90625 196.011719 174.90625 200.160156 C 174.90625 204.308594 180.089844 207.683594 186.464844 207.683594 C 192.839844 207.683594 198.027344 204.308594 198.027344 200.160156 C 198.027344 196.011719 192.839844 192.636719 186.464844 192.636719 Z M 186.464844 192.636719 " fill-opacity="1" fill-rule="nonzero"/></g><path fill="#ffc840" d="M 224.394531 127.859375 C 224.394531 106.375 206.582031 89.0625 184.941406 89.914062 C 165.597656 90.675781 149.742188 106.230469 148.613281 125.582031 C 147.71875 140.9375 155.9375 154.460938 168.355469 161.234375 C 171.507812 162.953125 173.519531 166.210938 173.519531 169.804688 L 173.519531 180.144531 L 199.417969 180.144531 L 199.417969 169.820312 C 199.417969 166.207031 201.449219 162.949219 204.617188 161.214844 C 216.394531 154.769531 224.386719 142.25 224.386719 127.863281 Z M 224.394531 127.859375 " fill-opacity="1" fill-rule="nonzero"/><path fill="#333333" d="M 200.6875 181.410156 L 172.253906 181.410156 L 172.253906 169.804688 C 172.253906 166.714844 170.527344 163.859375 167.753906 162.34375 C 154.273438 154.992188 146.453125 140.875 147.347656 125.507812 C 148.507812 105.621094 165 89.425781 184.890625 88.644531 C 195.660156 88.230469 205.871094 92.101562 213.628906 99.5625 C 221.386719 107.035156 225.65625 117.082031 225.65625 127.855469 C 225.65625 142.222656 217.832031 155.425781 205.226562 162.320312 C 202.425781 163.855469 200.6875 166.726562 200.6875 169.816406 Z M 174.789062 178.875 L 198.15625 178.875 L 198.15625 169.816406 C 198.15625 165.800781 200.402344 162.074219 204.015625 160.097656 C 215.800781 153.652344 223.125 141.296875 223.125 127.859375 C 223.125 117.78125 219.128906 108.378906 211.871094 101.394531 C 204.621094 94.410156 195.085938 90.777344 184.988281 91.179688 C 166.382812 91.910156 150.957031 107.054688 149.875 125.65625 C 149.035156 140.035156 156.351562 153.238281 168.960938 160.117188 C 172.554688 162.078125 174.78125 165.789062 174.78125 169.804688 L 174.78125 178.875 Z M 174.789062 178.875 " fill-opacity="1" fill-rule="nonzero"/><path fill="#aaaaaa" d="M 172.027344 172.164062 L 200.914062 172.164062 C 201.355469 172.164062 201.78125 172.25 202.1875 172.417969 C 202.597656 172.585938 202.957031 172.828125 203.269531 173.140625 C 203.582031 173.453125 203.824219 173.8125 203.992188 174.222656 C 204.160156 174.632812 204.246094 175.058594 204.246094 175.5 L 204.246094 179.140625 C 204.246094 179.582031 204.160156 180.007812 203.992188 180.414062 C 203.824219 180.824219 203.582031 181.183594 203.269531 181.496094 C 202.957031 181.808594 202.597656 182.050781 202.1875 182.222656 C 201.78125 182.390625 201.355469 182.476562 200.914062 182.476562 L 172.027344 182.476562 C 171.585938 182.476562 171.160156 182.390625 170.753906 182.222656 C 170.34375 182.050781 169.984375 181.808594 169.671875 181.496094 C 169.359375 181.183594 169.117188 180.824219 168.949219 180.414062 C 168.78125 180.007812 168.695312 179.582031 168.695312 179.140625 L 168.695312 175.5 C 168.695312 175.058594 168.78125 174.632812 168.949219 174.222656 C 169.117188 173.8125 169.359375 173.453125 169.671875 173.140625 C 169.984375 172.828125 170.34375 172.585938 170.753906 172.417969 C 171.160156 172.25 171.585938 172.164062 172.027344 172.164062 Z M 172.027344 172.164062 " fill-opacity="1" fill-rule="nonzero"/><path fill="#333333" d="M 200.914062 183.742188 L 172.03125 183.742188 C 169.496094 183.742188 167.433594 181.671875 167.433594 179.136719 L 167.433594 175.5 C 167.433594 172.960938 169.496094 170.894531 172.03125 170.894531 L 200.914062 170.894531 C 203.449219 170.894531 205.511719 172.960938 205.511719 175.5 L 205.511719 179.136719 C 205.511719 181.671875 203.449219 183.742188 200.914062 183.742188 Z M 172.03125 173.429688 C 170.890625 173.429688 169.964844 174.355469 169.964844 175.5 L 169.964844 179.136719 C 169.964844 180.277344 170.890625 181.207031 172.03125 181.207031 L 200.914062 181.207031 C 202.050781 181.207031 202.980469 180.277344 202.980469 179.136719 L 202.980469 175.5 C 202.980469 174.359375 202.054688 173.429688 200.914062 173.429688 Z M 172.03125 173.429688 " fill-opacity="1" fill-rule="nonzero"/><path fill="#aaaaaa" d="M 172.015625 182.476562 L 200.902344 182.476562 C 201.34375 182.476562 201.769531 182.558594 202.175781 182.730469 C 202.585938 182.898438 202.945312 183.140625 203.257812 183.453125 C 203.570312 183.765625 203.8125 184.125 203.980469 184.535156 C 204.148438 184.941406 204.234375 185.367188 204.234375 185.8125 L 204.234375 189.449219 C 204.234375 189.890625 204.148438 190.316406 203.980469 190.726562 C 203.8125 191.136719 203.570312 191.496094 203.257812 191.808594 C 202.945312 192.121094 202.585938 192.363281 202.175781 192.53125 C 201.769531 192.699219 201.34375 192.785156 200.902344 192.785156 L 172.015625 192.785156 C 171.574219 192.785156 171.148438 192.699219 170.742188 192.53125 C 170.332031 192.363281 169.972656 192.121094 169.660156 191.808594 C 169.347656 191.496094 169.105469 191.136719 168.9375 190.726562 C 168.769531 190.316406 168.683594 189.890625 168.683594 189.449219 L 168.683594 185.8125 C 168.683594 185.367188 168.769531 184.941406 168.9375 184.535156 C 169.105469 184.125 169.347656 183.765625 169.660156 183.453125 C 169.972656 183.140625 170.332031 182.898438 170.742188 182.730469 C 171.148438 182.558594 171.574219 182.476562 172.015625 182.476562 Z M 172.015625 182.476562 " fill-opacity="1" fill-rule="nonzero"/><path fill="#333333" d="M 200.898438 194.050781 L 172.015625 194.050781 C 169.480469 194.050781 167.417969 191.984375 167.417969 189.445312 L 167.417969 185.8125 C 167.417969 183.273438 169.480469 181.207031 172.015625 181.207031 L 200.898438 181.207031 C 203.433594 181.207031 205.496094 183.273438 205.496094 185.8125 L 205.496094 189.445312 C 205.496094 191.984375 203.433594 194.050781 200.898438 194.050781 Z M 172.015625 183.742188 C 170.875 183.742188 169.949219 184.667969 169.949219 185.8125 L 169.949219 189.445312 C 169.949219 190.585938 170.875 191.515625 172.015625 191.515625 L 200.898438 191.515625 C 202.039062 191.515625 202.964844 190.589844 202.964844 189.445312 L 202.964844 185.8125 C 202.964844 184.671875 202.039062 183.742188 200.898438 183.742188 Z M 172.015625 183.742188 " fill-opacity="1" fill-rule="nonzero"/><path fill="#aaaaaa" d="M 172.015625 192.78125 L 200.902344 192.78125 C 201.34375 192.78125 201.769531 192.867188 202.175781 193.035156 C 202.585938 193.207031 202.945312 193.445312 203.257812 193.761719 C 203.570312 194.074219 203.8125 194.433594 203.980469 194.84375 C 204.148438 195.25 204.234375 195.675781 204.234375 196.117188 L 204.234375 199.757812 C 204.234375 200.199219 204.148438 200.625 203.980469 201.035156 C 203.8125 201.441406 203.570312 201.804688 203.257812 202.117188 C 202.945312 202.429688 202.585938 202.671875 202.175781 202.839844 C 201.769531 203.007812 201.34375 203.09375 200.902344 203.09375 L 172.015625 203.09375 C 171.574219 203.09375 171.148438 203.007812 170.742188 202.839844 C 170.332031 202.671875 169.972656 202.429688 169.660156 202.117188 C 169.347656 201.804688 169.105469 201.441406 168.9375 201.035156 C 168.769531 200.625 168.683594 200.199219 168.683594 199.757812 L 168.683594 196.117188 C 168.683594 195.675781 168.769531 195.25 168.9375 194.84375 C 169.105469 194.433594 169.347656 194.074219 169.660156 193.761719 C 169.972656 193.445312 170.332031 193.207031 170.742188 193.035156 C 171.148438 192.867188 171.574219 192.78125 172.015625 192.78125 Z M 172.015625 192.78125 " fill-opacity="1" fill-rule="nonzero"/><path fill="#333333" d="M 200.898438 204.363281 L 172.015625 204.363281 C 169.480469 204.363281 167.417969 202.296875 167.417969 199.757812 L 167.417969 196.121094 C 167.417969 193.582031 169.480469 191.515625 172.015625 191.515625 L 200.898438 191.515625 C 203.433594 191.515625 205.496094 193.582031 205.496094 196.121094 L 205.496094 199.757812 C 205.496094 202.296875 203.433594 204.363281 200.898438 204.363281 Z M 172.015625 194.050781 C 170.875 194.050781 169.949219 194.980469 169.949219 196.121094 L 169.949219 199.757812 C 169.949219 200.898438 170.875 201.828125 172.015625 201.828125 L 200.898438 201.828125 C 202.039062 201.828125 202.964844 200.902344 202.964844 199.757812 L 202.964844 196.121094 C 202.964844 194.980469 202.039062 194.050781 200.898438 194.050781 Z M 172.015625 194.050781 " fill-opacity="1" fill-rule="nonzero"/><path fill="#ffffff" d="M 216.402344 124.53125 C 215.761719 124.53125 215.214844 124.050781 215.144531 123.402344 C 214.679688 119.085938 212.867188 110.996094 205.921875 105.253906 C 205.382812 104.808594 205.308594 104.011719 205.753906 103.46875 C 206.195312 102.929688 206.996094 102.851562 207.535156 103.296875 C 215.171875 109.613281 217.15625 118.433594 217.660156 123.128906 C 217.734375 123.824219 217.230469 124.449219 216.535156 124.523438 C 216.492188 124.53125 216.445312 124.53125 216.398438 124.53125 Z M 216.402344 124.53125 " fill-opacity="1" fill-rule="nonzero"/><path fill="#ffffff" d="M 202.925781 102.433594 C 202.621094 102.433594 202.316406 102.320312 202.074219 102.097656 C 199.890625 100.097656 197.386719 98.890625 194.621094 98.503906 C 193.929688 98.410156 193.441406 97.769531 193.542969 97.074219 C 193.636719 96.378906 194.265625 95.890625 194.96875 95.992188 C 198.203125 96.441406 201.25 97.90625 203.78125 100.222656 C 204.296875 100.699219 204.332031 101.5 203.859375 102.015625 C 203.609375 102.289062 203.265625 102.425781 202.925781 102.425781 Z M 202.925781 102.433594 " fill-opacity="1" fill-rule="nonzero"/><g clip-path="url(#974270c9bc)"><path fill="#333333" d="M 186.472656 81.171875 C 185.773438 81.171875 185.203125 80.605469 185.203125 79.90625 L 185.203125 61.488281 C 185.203125 60.789062 185.769531 60.21875 186.472656 60.21875 C 187.171875 60.21875 187.738281 60.785156 187.738281 61.488281 L 187.738281 79.90625 C 187.738281 80.605469 187.171875 81.175781 186.472656 81.175781 Z M 186.472656 81.171875 " fill-opacity="1" fill-rule="nonzero"/></g><g clip-path="url(#5c49385401)"><path fill="#333333" d="M 138.5 126.824219 L 120.109375 126.824219 C 119.410156 126.824219 118.84375 126.257812 118.84375 125.554688 C 118.84375 124.855469 119.410156 124.285156 120.109375 124.285156 L 138.5 124.285156 C 139.199219 124.285156 139.765625 124.855469 139.765625 125.554688 C 139.765625 126.257812 139.199219 126.824219 138.5 126.824219 Z M 138.5 126.824219 " fill-opacity="1" fill-rule="nonzero"/></g><path fill="#333333" d="M 254.675781 126.824219 L 236.285156 126.824219 C 235.585938 126.824219 235.015625 126.257812 235.015625 125.554688 C 235.015625 124.855469 235.582031 124.285156 236.285156 124.285156 L 254.675781 124.285156 C 255.371094 124.285156 255.941406 124.855469 255.941406 125.554688 C 255.941406 126.257812 255.375 126.824219 254.675781 126.824219 Z M 254.675781 126.824219 " fill-opacity="1" fill-rule="nonzero"/><path fill="#ffc840" d="M 221.792969 89.882812 L 234.800781 76.855469 " fill-opacity="1" fill-rule="nonzero"/><path fill="#333333" d="M 221.792969 91.148438 C 221.46875 91.148438 221.148438 91.027344 220.898438 90.777344 C 220.402344 90.28125 220.402344 89.480469 220.898438 88.984375 L 233.902344 75.960938 C 234.398438 75.46875 235.195312 75.46875 235.691406 75.960938 C 236.183594 76.457031 236.183594 77.257812 235.691406 77.753906 L 222.6875 90.777344 C 222.4375 91.027344 222.113281 91.148438 221.789062 91.148438 Z M 221.792969 91.148438 " fill-opacity="1" fill-rule="nonzero"/><path fill="#ffc840" d="M 151.503906 89.882812 L 138.5 76.855469 " fill-opacity="1" fill-rule="nonzero"/><path fill="#333333" d="M 151.503906 91.148438 C 151.179688 91.148438 150.855469 91.027344 150.609375 90.777344 L 137.605469 77.753906 C 137.109375 77.257812 137.109375 76.453125 137.605469 75.960938 C 138.097656 75.46875 138.898438 75.46875 139.390625 75.960938 L 152.398438 88.984375 C 152.890625 89.480469 152.890625 90.285156 152.398438 90.777344 C 152.148438 91.027344 151.824219 91.148438 151.5 91.148438 Z M 151.503906 91.148438 " fill-opacity="1" fill-rule="nonzero"/><path fill="#ffc840" d="M 151.503906 161.234375 L 138.5 174.261719 " fill-opacity="1" fill-rule="nonzero"/><path fill="#333333" d="M 138.5 175.527344 C 138.175781 175.527344 137.851562 175.402344 137.605469 175.15625 C 137.109375 174.660156 137.109375 173.859375 137.605469 173.363281 L 150.609375 160.339844 C 151.101562 159.847656 151.902344 159.847656 152.398438 160.339844 C 152.890625 160.835938 152.890625 161.636719 152.398438 162.132812 L 139.390625 175.15625 C 139.144531 175.402344 138.820312 175.527344 138.496094 175.527344 Z M 138.5 175.527344 " fill-opacity="1" fill-rule="nonzero"/><path fill="#ffc840" d="M 221.792969 161.234375 L 234.800781 174.261719 " fill-opacity="1" fill-rule="nonzero"/><path fill="#333333" d="M 234.800781 175.527344 C 234.476562 175.527344 234.152344 175.402344 233.90625 175.15625 L 220.902344 162.132812 C 220.40625 161.636719 220.40625 160.832031 220.902344 160.339844 C 221.394531 159.847656 222.195312 159.847656 222.691406 160.339844 L 235.695312 173.363281 C 236.1875 173.859375 236.1875 174.664062 235.695312 175.15625 C 235.445312 175.402344 235.121094 175.527344 234.796875 175.527344 Z M 234.800781 175.527344 " fill-opacity="1" fill-rule="nonzero"/><g clip-path="url(#3b0a0d7f09)"><path fill="#ffffff" d="M 205.410156 135.765625 C 205.410156 134.847656 204.664062 134.097656 203.742188 134.097656 L 185.34375 134.097656 C 184.425781 134.097656 183.675781 134.847656 183.675781 135.765625 L 183.675781 150.640625 C 183.675781 151.5625 184.425781 152.308594 185.34375 152.308594 L 203.742188 152.308594 C 204.664062 152.308594 205.410156 151.5625 205.410156 150.640625 Z M 205.410156 135.765625 " fill-opacity="1" fill-rule="nonzero"/></g><g clip-path="url(#7238e75311)"><path fill="#ffffff" d="M 208.933594 122.257812 C 208.933594 121.335938 208.1875 120.589844 207.265625 120.589844 L 185.34375 120.589844 C 184.425781 120.589844 183.675781 121.335938 183.675781 122.257812 L 183.675781 129.496094 C 183.675781 130.417969 184.425781 131.164062 185.34375 131.164062 L 207.265625 131.164062 C 208.1875 131.164062 208.933594 130.417969 208.933594 129.496094 Z M 208.933594 122.257812 " fill-opacity="1" fill-rule="nonzero"/></g><g clip-path="url(#6402668d3e)"><path fill="#ffffff" d="M 179.566406 150.640625 C 179.566406 151.5625 178.820312 152.308594 177.898438 152.308594 L 171.246094 152.308594 C 170.328125 152.308594 169.582031 151.5625 169.582031 150.640625 L 169.582031 135.765625 C 169.582031 134.847656 170.328125 134.097656 171.246094 134.097656 L 177.898438 134.097656 C 178.820312 134.097656 179.566406 134.847656 179.566406 135.765625 Z M 179.566406 150.640625 " fill-opacity="1" fill-rule="nonzero"/></g><g clip-path="url(#1f51c32956)"><path fill="#ffffff" d="M 179.566406 129.496094 C 179.566406 130.414062 178.820312 131.164062 177.898438 131.164062 L 167.722656 131.164062 C 166.800781 131.164062 166.054688 130.417969 166.054688 129.496094 L 166.054688 122.257812 C 166.054688 121.335938 166.800781 120.589844 167.722656 120.589844 L 177.898438 120.589844 C 178.820312 120.589844 179.566406 121.335938 179.566406 122.257812 Z M 179.566406 129.496094 " fill-opacity="1" fill-rule="nonzero"/></g><g clip-path="url(#85f48122fe)"><path fill="#ffffff" d="M 203.777344 107.144531 C 202.804688 105.460938 200.785156 104.453125 198.371094 104.453125 C 192.878906 104.453125 188.984375 109.464844 187.074219 112.628906 C 185.15625 109.46875 181.265625 104.488281 175.785156 104.488281 C 172.308594 104.488281 169.789062 106.578125 169.789062 109.414062 C 169.789062 114.449219 175.46875 117.730469 186.894531 117.730469 C 198.320312 117.730469 204.371094 113.511719 204.371094 109.457031 C 204.371094 108.652344 204.195312 107.863281 203.777344 107.144531 Z M 175.726562 112.15625 C 173.804688 111.167969 173.121094 110.0625 173.121094 109.351562 C 173.121094 108.449219 174.242188 107.789062 175.785156 107.789062 C 179.503906 107.789062 182.445312 111.484375 184.042969 114.058594 C 179.761719 113.78125 177.191406 112.910156 175.726562 112.15625 Z M 200.777344 110.195312 C 199.808594 111.871094 196.511719 113.644531 190.128906 114.054688 C 191.742188 111.484375 194.695312 107.789062 198.371094 107.789062 C 199.792969 107.789062 200.605469 108.316406 200.890625 108.8125 C 201.117188 109.207031 201.078125 109.671875 200.777344 110.195312 Z M 200.777344 110.195312 " fill-opacity="1" fill-rule="nonzero"/></g><g fill="#3c3c3b" fill-opacity="1"><g transform="translate(128.257312, 252.255569)"><g><path d="M 13.984375 0.433594 C 21.113281 0.433594 25.863281 -4.886719 25.796875 -12.3125 L 13.25 -12.3125 L 13.25 -10.371094 L 23.621094 -10.371094 C 23.1875 -5.253906 19.472656 -1.605469 14.019531 -1.605469 C 8.230469 -1.605469 4.214844 -5.722656 4.214844 -11.710938 C 4.214844 -17.699219 8.195312 -21.8125 14.019531 -21.8125 C 18.199219 -21.8125 21.414062 -19.671875 22.886719 -16.195312 L 25.09375 -16.195312 C 23.585938 -20.742188 19.339844 -23.855469 13.917969 -23.855469 C 7.058594 -23.855469 2.140625 -18.804688 2.140625 -11.710938 C 2.140625 -4.617188 7.058594 0.433594 13.984375 0.433594 Z M 13.984375 0.433594 "/></g></g></g><g fill="#3c3c3b" fill-opacity="1"><g transform="translate(158.56978, 252.255569)"><g><path d="M 2.675781 -7.59375 L 12.546875 -7.59375 L 12.546875 -9.402344 L 2.675781 -9.402344 Z M 2.675781 -7.59375 "/></g></g></g><g fill="#3c3c3b" fill-opacity="1"><g transform="translate(176.268971, 252.255569)"><g><path d="M 8.464844 0 L 10.40625 0 L 13.71875 -9.035156 L 17.867188 -20.34375 L 25.359375 0 L 27.269531 0 L 34.964844 -23.421875 L 32.820312 -23.421875 L 29.375 -12.746094 L 26.265625 -3.144531 L 18.835938 -23.421875 L 16.894531 -23.421875 L 13.015625 -12.746094 L 9.5 -3.179688 L 6.425781 -12.746094 L 2.945312 -23.421875 L 0.804688 -23.421875 Z M 8.464844 0 "/></g></g></g><g fill="#3c3c3b" fill-opacity="1"><g transform="translate(214.51074, 252.255569)"><g><path d="M 3.78125 0 L 5.820312 0 L 5.820312 -23.421875 L 3.78125 -23.421875 Z M 3.78125 0 "/></g></g></g><g fill="#3c3c3b" fill-opacity="1"><g transform="translate(226.589154, 252.255569)"><g><path d="M 1.941406 0 L 18.269531 0 L 18.269531 -1.941406 L 4.617188 -1.941406 L 17.964844 -21.882812 L 17.964844 -23.421875 L 2.242188 -23.421875 L 2.242188 -21.480469 L 15.289062 -21.480469 L 1.941406 -1.503906 Z M 1.941406 0 "/></g></g></g><g fill="#3c3c3b" fill-opacity="1"><g transform="translate(146.079517, 269.636673)"><g><path d="M -0.265625 -0.375 C -0.0976562 -0.40625 0.0390625 -0.4375 0.15625 -0.46875 C 0.269531 -0.5 0.378906 -0.546875 0.484375 -0.609375 L 3.265625 -6.8125 L 3.921875 -6.8125 L 4.96875 -0.640625 C 5.070312 -0.554688 5.175781 -0.5 5.28125 -0.46875 C 5.394531 -0.4375 5.53125 -0.40625 5.6875 -0.375 L 5.65625 0 L 2.9375 0 L 3 -0.375 C 3.394531 -0.425781 3.71875 -0.515625 3.96875 -0.640625 L 3.734375 -2.203125 L 1.84375 -2.203125 L 1.171875 -0.640625 C 1.378906 -0.515625 1.703125 -0.425781 2.140625 -0.375 L 2.078125 0 L -0.3125 0 Z M 3.65625 -2.734375 L 3.25 -5.453125 L 2.0625 -2.734375 Z M 3.65625 -2.734375 "/></g></g></g><g fill="#3c3c3b" fill-opacity="1"><g transform="translate(153.887942, 269.636673)"><g><path d="M 0.078125 -0.375 C 0.273438 -0.394531 0.4375 -0.421875 0.5625 -0.453125 C 0.695312 -0.492188 0.828125 -0.554688 0.953125 -0.640625 L 1.84375 -6.171875 C 1.613281 -6.304688 1.316406 -6.394531 0.953125 -6.4375 L 1.015625 -6.8125 L 3.65625 -6.8125 L 3.609375 -6.4375 C 3.429688 -6.414062 3.273438 -6.382812 3.140625 -6.34375 C 3.003906 -6.300781 2.867188 -6.242188 2.734375 -6.171875 L 1.859375 -0.640625 C 2.078125 -0.515625 2.382812 -0.425781 2.78125 -0.375 L 2.734375 0 L 0.03125 0 Z M 0.078125 -0.375 "/></g></g></g><g fill="#3c3c3b" fill-opacity="1"><g transform="translate(159.16213, 269.636673)"><g/></g></g><g fill="#3c3c3b" fill-opacity="1"><g transform="translate(163.312268, 269.636673)"><g><path d="M 0.078125 -0.375 C 0.273438 -0.394531 0.4375 -0.421875 0.5625 -0.453125 C 0.695312 -0.492188 0.828125 -0.554688 0.953125 -0.640625 L 1.84375 -6.171875 C 1.613281 -6.304688 1.316406 -6.394531 0.953125 -6.4375 L 1.015625 -6.8125 L 3.65625 -6.8125 L 3.609375 -6.4375 C 3.429688 -6.414062 3.273438 -6.382812 3.140625 -6.34375 C 3.003906 -6.300781 2.867188 -6.242188 2.734375 -6.171875 L 1.859375 -0.640625 C 2.078125 -0.515625 2.382812 -0.425781 2.78125 -0.375 L 2.734375 0 L 0.03125 0 Z M 0.078125 -0.375 "/></g></g></g><g fill="#3c3c3b" fill-opacity="1"><g transform="translate(168.586456, 269.636673)"><g><path d="M 1.703125 0.078125 C 1.285156 0.078125 0.960938 -0.0546875 0.734375 -0.328125 C 0.515625 -0.609375 0.40625 -1.066406 0.40625 -1.703125 C 0.40625 -2.285156 0.503906 -2.816406 0.703125 -3.296875 C 0.910156 -3.785156 1.1875 -4.164062 1.53125 -4.4375 C 1.875 -4.71875 2.253906 -4.859375 2.671875 -4.859375 C 2.898438 -4.859375 3.109375 -4.835938 3.296875 -4.796875 C 3.492188 -4.753906 3.648438 -4.707031 3.765625 -4.65625 C 3.796875 -4.851562 3.84375 -5.132812 3.90625 -5.5 C 3.96875 -5.863281 4 -6.082031 4 -6.15625 C 4.019531 -6.4375 3.820312 -6.578125 3.40625 -6.578125 L 3.21875 -6.578125 L 3.28125 -6.96875 C 3.726562 -7.0625 4.132812 -7.109375 4.5 -7.109375 C 4.59375 -7.109375 4.722656 -7.101562 4.890625 -7.09375 L 5 -6.859375 L 4.734375 -5.15625 C 4.578125 -4.207031 4.429688 -3.316406 4.296875 -2.484375 C 4.160156 -1.648438 4.070312 -1.082031 4.03125 -0.78125 C 4.03125 -0.6875 4.09375 -0.640625 4.21875 -0.640625 C 4.363281 -0.640625 4.546875 -0.703125 4.765625 -0.828125 L 4.859375 -0.5 C 4.703125 -0.363281 4.507812 -0.234375 4.28125 -0.109375 C 4.0625 0.015625 3.851562 0.078125 3.65625 0.078125 C 3.300781 0.078125 3.125 -0.078125 3.125 -0.390625 C 3.125 -0.515625 3.148438 -0.71875 3.203125 -1 C 3.003906 -0.695312 2.773438 -0.441406 2.515625 -0.234375 C 2.265625 -0.0234375 1.992188 0.078125 1.703125 0.078125 Z M 1.96875 -0.453125 C 2.15625 -0.453125 2.347656 -0.5625 2.546875 -0.78125 C 2.753906 -1 2.941406 -1.304688 3.109375 -1.703125 C 3.285156 -2.109375 3.414062 -2.566406 3.5 -3.078125 L 3.671875 -4.15625 C 3.421875 -4.320312 3.164062 -4.40625 2.90625 -4.40625 C 2.613281 -4.40625 2.34375 -4.265625 2.09375 -3.984375 C 1.851562 -3.703125 1.660156 -3.351562 1.515625 -2.9375 C 1.378906 -2.519531 1.3125 -2.125 1.3125 -1.75 C 1.3125 -1.300781 1.367188 -0.972656 1.484375 -0.765625 C 1.609375 -0.554688 1.769531 -0.453125 1.96875 -0.453125 Z M 1.96875 -0.453125 "/></g></g></g><g fill="#3c3c3b" fill-opacity="1"><g transform="translate(175.730664, 269.636673)"><g><path d="M 2.03125 0.078125 C 1.46875 0.078125 1.054688 -0.0859375 0.796875 -0.421875 C 0.535156 -0.753906 0.40625 -1.148438 0.40625 -1.609375 C 0.40625 -2.253906 0.507812 -2.820312 0.71875 -3.3125 C 0.925781 -3.8125 1.21875 -4.191406 1.59375 -4.453125 C 1.976562 -4.722656 2.414062 -4.859375 2.90625 -4.859375 C 3.375 -4.859375 3.722656 -4.753906 3.953125 -4.546875 C 4.191406 -4.335938 4.3125 -4.082031 4.3125 -3.78125 C 4.3125 -3.457031 4.179688 -3.15625 3.921875 -2.875 C 3.660156 -2.601562 3.300781 -2.390625 2.84375 -2.234375 C 2.394531 -2.078125 1.890625 -2 1.328125 -2 L 1.328125 -1.75 C 1.328125 -1.320312 1.40625 -1 1.5625 -0.78125 C 1.726562 -0.5625 1.953125 -0.453125 2.234375 -0.453125 C 2.617188 -0.453125 3.085938 -0.660156 3.640625 -1.078125 L 3.9375 -0.703125 C 3.726562 -0.492188 3.453125 -0.3125 3.109375 -0.15625 C 2.765625 0 2.40625 0.078125 2.03125 0.078125 Z M 1.375 -2.5 C 1.78125 -2.5 2.132812 -2.550781 2.4375 -2.65625 C 2.75 -2.769531 2.988281 -2.925781 3.15625 -3.125 C 3.320312 -3.320312 3.40625 -3.546875 3.40625 -3.796875 C 3.40625 -3.960938 3.351562 -4.101562 3.25 -4.21875 C 3.15625 -4.332031 3.019531 -4.390625 2.84375 -4.390625 C 2.46875 -4.390625 2.148438 -4.210938 1.890625 -3.859375 C 1.640625 -3.503906 1.46875 -3.050781 1.375 -2.5 Z M 1.375 -2.5 "/></g></g></g><g fill="#3c3c3b" fill-opacity="1"><g transform="translate(182.088034, 269.636673)"><g><path d="M 1.6875 0.078125 C 1.257812 0.078125 0.9375 -0.0625 0.71875 -0.34375 C 0.507812 -0.625 0.40625 -1.054688 0.40625 -1.640625 C 0.40625 -2.242188 0.5 -2.789062 0.6875 -3.28125 C 0.882812 -3.769531 1.160156 -4.15625 1.515625 -4.4375 C 1.867188 -4.726562 2.273438 -4.875 2.734375 -4.875 C 3.085938 -4.875 3.457031 -4.785156 3.84375 -4.609375 C 4 -4.773438 4.171875 -4.859375 4.359375 -4.859375 C 4.472656 -4.859375 4.582031 -4.851562 4.6875 -4.84375 C 4.46875 -3.53125 4.359375 -2.878906 4.359375 -2.890625 C 4.140625 -1.597656 4.03125 -0.894531 4.03125 -0.78125 C 4.03125 -0.6875 4.09375 -0.640625 4.21875 -0.640625 C 4.300781 -0.640625 4.394531 -0.660156 4.5 -0.703125 C 4.601562 -0.742188 4.691406 -0.785156 4.765625 -0.828125 L 4.859375 -0.5 C 4.703125 -0.363281 4.507812 -0.234375 4.28125 -0.109375 C 4.0625 0.015625 3.851562 0.078125 3.65625 0.078125 C 3.300781 0.078125 3.125 -0.0859375 3.125 -0.421875 C 3.125 -0.535156 3.148438 -0.726562 3.203125 -1 C 2.722656 -0.28125 2.21875 0.078125 1.6875 0.078125 Z M 1.953125 -0.453125 C 2.140625 -0.453125 2.335938 -0.5625 2.546875 -0.78125 C 2.753906 -1 2.941406 -1.304688 3.109375 -1.703125 C 3.285156 -2.109375 3.414062 -2.566406 3.5 -3.078125 L 3.671875 -4.140625 C 3.421875 -4.304688 3.175781 -4.390625 2.9375 -4.390625 C 2.625 -4.390625 2.34375 -4.253906 2.09375 -3.984375 C 1.851562 -3.710938 1.660156 -3.363281 1.515625 -2.9375 C 1.378906 -2.507812 1.3125 -2.078125 1.3125 -1.640625 C 1.3125 -1.242188 1.367188 -0.945312 1.484375 -0.75 C 1.609375 -0.550781 1.765625 -0.453125 1.953125 -0.453125 Z M 1.953125 -0.453125 "/></g></g></g><g fill="#3c3c3b" fill-opacity="1"><g transform="translate(189.252682, 269.636673)"><g/></g></g><g fill="#3c3c3b" fill-opacity="1"><g transform="translate(193.402819, 269.636673)"><g><path d="M 1.640625 0.078125 C 1.304688 0.078125 1 0.03125 0.71875 -0.0625 C 0.445312 -0.15625 0.171875 -0.285156 -0.109375 -0.453125 L 0.34375 -2.125 L 0.8125 -2.046875 C 0.769531 -1.816406 0.75 -1.582031 0.75 -1.34375 C 0.75 -1.164062 0.769531 -1 0.8125 -0.84375 C 0.925781 -0.726562 1.078125 -0.632812 1.265625 -0.5625 C 1.460938 -0.5 1.664062 -0.46875 1.875 -0.46875 C 2.1875 -0.46875 2.445312 -0.5625 2.65625 -0.75 C 2.863281 -0.945312 2.96875 -1.195312 2.96875 -1.5 C 2.96875 -1.726562 2.890625 -1.953125 2.734375 -2.171875 C 2.578125 -2.390625 2.335938 -2.664062 2.015625 -3 C 2.015625 -3 1.960938 -3.054688 1.859375 -3.171875 C 1.535156 -3.503906 1.285156 -3.800781 1.109375 -4.0625 C 0.941406 -4.332031 0.859375 -4.625 0.859375 -4.9375 C 0.859375 -5.332031 0.960938 -5.675781 1.171875 -5.96875 C 1.378906 -6.269531 1.65625 -6.5 2 -6.65625 C 2.34375 -6.8125 2.695312 -6.890625 3.0625 -6.890625 C 3.539062 -6.890625 3.914062 -6.785156 4.1875 -6.578125 C 4.457031 -6.367188 4.59375 -6.101562 4.59375 -5.78125 C 4.59375 -5.582031 4.53125 -5.40625 4.40625 -5.25 C 4.289062 -5.101562 4.132812 -5.03125 3.9375 -5.03125 C 3.800781 -5.03125 3.6875 -5.0625 3.59375 -5.125 C 3.5 -5.1875 3.445312 -5.265625 3.4375 -5.359375 C 3.5625 -5.503906 3.625 -5.65625 3.625 -5.8125 C 3.625 -5.96875 3.554688 -6.097656 3.421875 -6.203125 C 3.296875 -6.304688 3.109375 -6.363281 2.859375 -6.375 C 2.546875 -6.375 2.28125 -6.273438 2.0625 -6.078125 C 1.851562 -5.878906 1.75 -5.628906 1.75 -5.328125 C 1.75 -5.085938 1.832031 -4.851562 2 -4.625 C 2.164062 -4.40625 2.425781 -4.117188 2.78125 -3.765625 C 3.03125 -3.503906 3.226562 -3.289062 3.375 -3.125 C 3.519531 -2.957031 3.644531 -2.765625 3.75 -2.546875 C 3.851562 -2.335938 3.90625 -2.109375 3.90625 -1.859375 C 3.90625 -1.398438 3.785156 -1.023438 3.546875 -0.734375 C 3.304688 -0.441406 3.015625 -0.234375 2.671875 -0.109375 C 2.328125 0.015625 1.984375 0.078125 1.640625 0.078125 Z M 1.640625 0.078125 "/></g></g></g><g fill="#3c3c3b" fill-opacity="1"><g transform="translate(199.535381, 269.636673)"><g><path d="M 1.375 0.078125 C 1.09375 0.078125 0.882812 0.00390625 0.75 -0.140625 C 0.613281 -0.296875 0.546875 -0.503906 0.546875 -0.765625 C 0.546875 -0.972656 0.695312 -2.019531 1 -3.90625 L 1.046875 -4.21875 L 0.3125 -4.21875 L 0.375 -4.5625 C 0.65625 -4.632812 0.878906 -4.722656 1.046875 -4.828125 C 1.222656 -4.941406 1.359375 -5.066406 1.453125 -5.203125 C 1.546875 -5.347656 1.65625 -5.535156 1.78125 -5.765625 L 2.1875 -5.765625 L 2.015625 -4.765625 L 3.65625 -4.765625 L 3.546875 -4.21875 L 1.9375 -4.21875 L 1.875 -3.875 C 1.582031 -2.113281 1.4375 -1.125 1.4375 -0.90625 C 1.4375 -0.675781 1.554688 -0.5625 1.796875 -0.5625 C 1.941406 -0.5625 2.101562 -0.609375 2.28125 -0.703125 C 2.46875 -0.796875 2.675781 -0.921875 2.90625 -1.078125 L 3.15625 -0.734375 C 2.832031 -0.472656 2.539062 -0.269531 2.28125 -0.125 C 2.019531 0.0078125 1.71875 0.078125 1.375 0.078125 Z M 1.375 0.078125 "/></g></g></g><g fill="#3c3c3b" fill-opacity="1"><g transform="translate(204.911752, 269.636673)"><g><path d="M 2.078125 -4.640625 C 1.691406 -2.523438 1.5 -1.351562 1.5 -1.125 C 1.5 -0.914062 1.550781 -0.753906 1.65625 -0.640625 C 1.757812 -0.535156 1.890625 -0.484375 2.046875 -0.484375 C 2.441406 -0.484375 2.785156 -0.75 3.078125 -1.28125 C 3.367188 -1.8125 3.566406 -2.425781 3.671875 -3.125 L 3.9375 -4.765625 C 4.144531 -4.828125 4.34375 -4.859375 4.53125 -4.859375 C 4.613281 -4.859375 4.710938 -4.851562 4.828125 -4.84375 L 4.640625 -3.671875 C 4.535156 -3.046875 4.441406 -2.460938 4.359375 -1.921875 C 4.273438 -1.390625 4.21875 -1.019531 4.1875 -0.8125 C 4.1875 -0.695312 4.257812 -0.640625 4.40625 -0.640625 C 4.53125 -0.640625 4.703125 -0.703125 4.921875 -0.828125 L 5.03125 -0.5 C 4.875 -0.363281 4.679688 -0.234375 4.453125 -0.109375 C 4.234375 0.015625 4.019531 0.078125 3.8125 0.078125 C 3.625 0.078125 3.488281 0.0351562 3.40625 -0.046875 C 3.332031 -0.128906 3.296875 -0.253906 3.296875 -0.421875 C 3.296875 -0.492188 3.316406 -0.671875 3.359375 -0.953125 L 3.40625 -1.1875 C 3.207031 -0.84375 2.972656 -0.546875 2.703125 -0.296875 C 2.429688 -0.046875 2.113281 0.078125 1.75 0.078125 C 1.382812 0.078125 1.101562 -0.015625 0.90625 -0.203125 C 0.707031 -0.398438 0.609375 -0.675781 0.609375 -1.03125 C 0.609375 -1.125 0.644531 -1.398438 0.71875 -1.859375 C 0.800781 -2.328125 0.851562 -2.617188 0.875 -2.734375 C 1.007812 -3.453125 1.078125 -3.863281 1.078125 -3.96875 C 1.078125 -4.050781 1.050781 -4.113281 1 -4.15625 C 0.945312 -4.207031 0.859375 -4.234375 0.734375 -4.234375 C 0.691406 -4.234375 0.585938 -4.226562 0.421875 -4.21875 L 0.375 -4.546875 C 0.539062 -4.617188 0.75 -4.6875 1 -4.75 C 1.25 -4.820312 1.472656 -4.859375 1.671875 -4.859375 C 1.753906 -4.859375 1.847656 -4.847656 1.953125 -4.828125 Z M 2.078125 -4.640625 "/></g></g></g><g fill="#3c3c3b" fill-opacity="1"><g transform="translate(212.239901, 269.636673)"><g><path d="M 1.703125 0.078125 C 1.285156 0.078125 0.960938 -0.0546875 0.734375 -0.328125 C 0.515625 -0.609375 0.40625 -1.066406 0.40625 -1.703125 C 0.40625 -2.285156 0.503906 -2.816406 0.703125 -3.296875 C 0.910156 -3.785156 1.1875 -4.164062 1.53125 -4.4375 C 1.875 -4.71875 2.253906 -4.859375 2.671875 -4.859375 C 2.898438 -4.859375 3.109375 -4.835938 3.296875 -4.796875 C 3.492188 -4.753906 3.648438 -4.707031 3.765625 -4.65625 C 3.796875 -4.851562 3.84375 -5.132812 3.90625 -5.5 C 3.96875 -5.863281 4 -6.082031 4 -6.15625 C 4.019531 -6.4375 3.820312 -6.578125 3.40625 -6.578125 L 3.21875 -6.578125 L 3.28125 -6.96875 C 3.726562 -7.0625 4.132812 -7.109375 4.5 -7.109375 C 4.59375 -7.109375 4.722656 -7.101562 4.890625 -7.09375 L 5 -6.859375 L 4.734375 -5.15625 C 4.578125 -4.207031 4.429688 -3.316406 4.296875 -2.484375 C 4.160156 -1.648438 4.070312 -1.082031 4.03125 -0.78125 C 4.03125 -0.6875 4.09375 -0.640625 4.21875 -0.640625 C 4.363281 -0.640625 4.546875 -0.703125 4.765625 -0.828125 L 4.859375 -0.5 C 4.703125 -0.363281 4.507812 -0.234375 4.28125 -0.109375 C 4.0625 0.015625 3.851562 0.078125 3.65625 0.078125 C 3.300781 0.078125 3.125 -0.078125 3.125 -0.390625 C 3.125 -0.515625 3.148438 -0.71875 3.203125 -1 C 3.003906 -0.695312 2.773438 -0.441406 2.515625 -0.234375 C 2.265625 -0.0234375 1.992188 0.078125 1.703125 0.078125 Z M 1.96875 -0.453125 C 2.15625 -0.453125 2.347656 -0.5625 2.546875 -0.78125 C 2.753906 -1 2.941406 -1.304688 3.109375 -1.703125 C 3.285156 -2.109375 3.414062 -2.566406 3.5 -3.078125 L 3.671875 -4.15625 C 3.421875 -4.320312 3.164062 -4.40625 2.90625 -4.40625 C 2.613281 -4.40625 2.34375 -4.265625 2.09375 -3.984375 C 1.851562 -3.703125 1.660156 -3.351562 1.515625 -2.9375 C 1.378906 -2.519531 1.3125 -2.125 1.3125 -1.75 C 1.3125 -1.300781 1.367188 -0.972656 1.484375 -0.765625 C 1.609375 -0.554688 1.769531 -0.453125 1.96875 -0.453125 Z M 1.96875 -0.453125 "/></g></g></g><g fill="#3c3c3b" fill-opacity="1"><g transform="translate(219.38411, 269.636673)"><g><path d="M 1.09375 0.078125 C 0.894531 0.078125 0.753906 0.0351562 0.671875 -0.046875 C 0.585938 -0.128906 0.546875 -0.265625 0.546875 -0.453125 C 0.546875 -0.554688 0.585938 -0.90625 0.671875 -1.5 C 0.765625 -2.09375 0.828125 -2.46875 0.859375 -2.625 C 0.992188 -3.445312 1.0625 -3.894531 1.0625 -3.96875 C 1.0625 -4.144531 0.945312 -4.234375 0.71875 -4.234375 C 0.675781 -4.234375 0.570312 -4.226562 0.40625 -4.21875 L 0.359375 -4.546875 C 0.503906 -4.617188 0.703125 -4.6875 0.953125 -4.75 C 1.210938 -4.820312 1.453125 -4.859375 1.671875 -4.859375 C 1.765625 -4.859375 1.851562 -4.847656 1.9375 -4.828125 L 2.0625 -4.640625 C 1.664062 -2.265625 1.46875 -1.003906 1.46875 -0.859375 C 1.46875 -0.765625 1.476562 -0.703125 1.5 -0.671875 C 1.53125 -0.648438 1.585938 -0.640625 1.671875 -0.640625 C 1.742188 -0.640625 1.832031 -0.660156 1.9375 -0.703125 C 2.039062 -0.753906 2.125 -0.796875 2.1875 -0.828125 L 2.28125 -0.5 C 2.125 -0.363281 1.929688 -0.234375 1.703125 -0.109375 C 1.484375 0.015625 1.28125 0.078125 1.09375 0.078125 Z M 1.59375 -5.40625 C 1.445312 -5.40625 1.332031 -5.445312 1.25 -5.53125 C 1.164062 -5.625 1.125 -5.742188 1.125 -5.890625 C 1.125 -6.085938 1.179688 -6.253906 1.296875 -6.390625 C 1.410156 -6.523438 1.554688 -6.59375 1.734375 -6.59375 C 1.890625 -6.59375 2.003906 -6.546875 2.078125 -6.453125 C 2.160156 -6.367188 2.203125 -6.25 2.203125 -6.09375 C 2.203125 -5.894531 2.144531 -5.726562 2.03125 -5.59375 C 1.914062 -5.46875 1.769531 -5.40625 1.59375 -5.40625 Z M 1.59375 -5.40625 "/></g></g></g><g fill="#3c3c3b" fill-opacity="1"><g transform="translate(223.973642, 269.636673)"><g><path d="M 2.078125 0.078125 C 1.523438 0.078125 1.109375 -0.0703125 0.828125 -0.375 C 0.546875 -0.6875 0.40625 -1.117188 0.40625 -1.671875 C 0.40625 -2.234375 0.5 -2.753906 0.6875 -3.234375 C 0.882812 -3.722656 1.164062 -4.113281 1.53125 -4.40625 C 1.90625 -4.707031 2.351562 -4.859375 2.875 -4.859375 C 3.414062 -4.859375 3.828125 -4.707031 4.109375 -4.40625 C 4.390625 -4.101562 4.53125 -3.671875 4.53125 -3.109375 C 4.53125 -2.554688 4.4375 -2.035156 4.25 -1.546875 C 4.0625 -1.054688 3.78125 -0.660156 3.40625 -0.359375 C 3.03125 -0.0664062 2.585938 0.078125 2.078125 0.078125 Z M 2.078125 -0.421875 C 2.328125 -0.421875 2.566406 -0.546875 2.796875 -0.796875 C 3.035156 -1.046875 3.226562 -1.378906 3.375 -1.796875 C 3.519531 -2.222656 3.59375 -2.679688 3.59375 -3.171875 C 3.59375 -3.546875 3.53125 -3.835938 3.40625 -4.046875 C 3.289062 -4.265625 3.113281 -4.375 2.875 -4.375 C 2.613281 -4.375 2.363281 -4.25 2.125 -4 C 1.894531 -3.75 1.707031 -3.410156 1.5625 -2.984375 C 1.425781 -2.554688 1.359375 -2.097656 1.359375 -1.609375 C 1.359375 -1.234375 1.414062 -0.941406 1.53125 -0.734375 C 1.65625 -0.523438 1.835938 -0.421875 2.078125 -0.421875 Z M 2.078125 -0.421875 "/></g></g></g></svg>